<svg id="lsgs-f2d71--simple-header-logo-:r0:-svg" data-name="Logo horizontal RGB" xmlns="http://www.w3.org/2000/svg" x="0" y="0" width="300" height="40" viewBox="0, 0, 300, 40" preserveAspectRatio="xMinYMin meet" className="lsgs-f2d71--logo-horizontal-svg lsgs-f2d71--logo-svg" role="img" focusable="false" aria-hidden="true"  fill="white"><title id="lsgs-f2d71--simple-header-logo-:r0:-svg-title">Startseite Commerzbank - PortalName</title><defs><radialGradient id="lsgs-f2d71--simple-header-logo-:r0:-svg-gradient" data-name="Coba / RGB / Gradient" gradientUnits="userSpaceOnUse" cx="40.753" cy="-212.504" r="53.403" gradientTransform="matrix(0.667, 0, 0, 0.667, 255.229, 141.629)"><stop offset="0" stopColor="#FFEF19"></stop><stop offset="0.246" stopColor="#FFDF08"></stop><stop offset="0.44" stopColor="#FFD700"></stop><stop offset="0.588" stopColor="#FDD401"></stop><stop offset="0.713" stopColor="#F7C903"></stop><stop offset="0.829" stopColor="#ECB808"></stop><stop offset="0.9" stopColor="#E3A90B"></stop><stop offset="1" stopColor="#D98B07"></stop></radialGradient><radialGradient id="lsgs-f2d71--simple-header-logo-:r0:-svg-gradient-2" data-name="Coba / RGB / Gradient" gradientUnits="userSpaceOnUse" cx="2.31" cy="-173.416" r="53.072" gradientTransform="matrix(0.667, 0, 0, 0.667, 255.229, 141.629)"><stop offset="0" stopColor="#FFEF19"></stop><stop offset="0.246" stopColor="#FFDF08"></stop><stop offset="0.44" stopColor="#FFD700"></stop><stop offset="0.588" stopColor="#FDD401"></stop><stop offset="0.713" stopColor="#F7C903"></stop><stop offset="0.829" stopColor="#ECB808"></stop><stop offset="0.9" stopColor="#E3A90B"></stop><stop offset="1" stopColor="#D98B07"></stop></radialGradient><radialGradient id="lsgs-f2d71--simple-header-logo-:r0:-svg-gradient-3" data-name="Coba / RGB / Gradient" gradientUnits="userSpaceOnUse" cx="54.921" cy="-159.501" r="53.36" gradientTransform="matrix(0.667, 0, 0, 0.667, 255.229, 141.629)"><stop offset="0" stopColor="#FFEF19"></stop><stop offset="0.246" stopColor="#FFDF08"></stop><stop offset="0.44" stopColor="#FFD700"></stop><stop offset="0.588" stopColor="#FDD401"></stop><stop offset="0.713" stopColor="#F7C903"></stop><stop offset="0.829" stopColor="#ECB808"></stop><stop offset="0.9" stopColor="#E3A90B"></stop><stop offset="1" stopColor="#D98B07"></stop></radialGradient></defs><g id="Wortmarke"><path d="M10.474,33.059 L10.474,33.059 C4.704,33.059 0.01,28.608 0.01,22.159 C0.01,15.993 4.785,11.056 10.751,11.056 C13.697,11.056 16.282,12.254 18.032,14.162 L15.05,17.264 C13.856,16.112 12.385,15.472 10.672,15.472 C7.41,15.472 5.104,18.381 5.104,22.04 C5.104,25.822 7.371,28.642 10.751,28.642 C12.702,28.642 14.214,27.971 15.407,26.694 L18.271,29.64 C16.322,31.87 13.776,33.059 10.474,33.059 L10.474,33.059 z M30.9,28.725 L30.9,28.725 C34.638,28.725 36.907,25.66 36.907,22.076 C36.907,18.301 34.559,15.394 30.9,15.394 C27.16,15.394 24.891,18.461 24.891,22.04 C24.891,25.822 27.239,28.725 30.9,28.725 L30.9,28.725 z M30.818,33.059 L30.818,33.059 C24.375,33.059 19.879,28.367 19.879,22.159 C19.879,16.032 24.652,11.056 30.979,11.056 C37.425,11.056 41.919,15.754 41.919,21.959 C41.919,28.091 37.145,33.059 30.818,33.059 L30.818,33.059 z M59.573,32.663 L63.154,21.005 C63.79,18.975 64.267,16.669 64.267,16.669 L64.348,16.669 C64.348,16.669 64.388,18.975 64.587,21.285 L65.542,32.663 L70.234,32.663 L68.168,11.419 L62.001,11.419 L58.777,21.959 C58.261,23.673 57.704,25.861 57.704,25.861 C57.704,25.861 57.149,23.673 56.589,21.92 L53.326,11.419 L47.04,11.419 L44.972,32.663 L49.388,32.663 L50.345,21.205 C50.542,18.975 50.582,16.669 50.582,16.669 L50.661,16.669 C50.661,16.669 51.179,18.975 51.814,21.087 L55.396,32.663 L59.573,32.663 L59.573,32.663 z M89.213,32.663 L92.793,21.005 C93.43,18.975 93.909,16.669 93.909,16.669 L93.987,16.669 C93.987,16.669 94.028,18.975 94.226,21.285 L95.18,32.663 L99.876,32.663 L97.806,11.419 L91.64,11.419 L88.419,21.959 C87.9,23.673 87.344,25.861 87.344,25.861 C87.344,25.861 86.785,23.673 86.229,21.92 L82.966,11.419 L76.679,11.419 L74.611,32.663 L79.027,32.663 L79.983,21.205 C80.182,18.975 80.222,16.669 80.222,16.669 L80.301,16.669 C80.301,16.669 80.817,18.975 81.454,21.087 L85.034,32.663 L89.213,32.663 L89.213,32.663 z M104.96,32.663 L118.766,32.663 L118.766,28.608 L109.575,28.608 L109.575,23.951 L117.373,23.951 L117.373,19.971 L109.575,19.971 L109.575,15.472 L118.645,15.472 L118.645,11.419 L104.96,11.419 L104.96,32.663 L104.96,32.663 z M134.662,18.223 L134.662,18.223 C134.662,16.151 133.23,15.394 130.761,15.394 L128.854,15.394 L128.854,21.049 L130.761,21.049 C133.35,21.049 134.662,20.212 134.662,18.223 L134.662,18.223 z M140.351,32.663 L134.862,32.663 L130.325,24.946 L128.855,24.946 L128.855,32.663 L124.239,32.663 L124.239,11.419 L130.604,11.419 C137.009,11.419 139.436,13.924 139.436,18.223 C139.436,20.968 137.885,23.074 135.139,24.109 L140.351,32.663 L140.351,32.663 z M143.077,32.663 L157.875,32.663 L157.875,28.608 L148.884,28.608 L157.678,14.922 L157.678,11.419 L143.277,11.419 L143.277,15.472 L151.867,15.472 L143.077,29.162 L143.077,32.663 L143.077,32.663 z M167.281,23.912 L167.281,28.685 L170.706,28.685 C173.055,28.685 174.088,27.849 174.088,26.219 C174.088,24.547 172.773,23.912 170.706,23.912 L167.281,23.912 L167.281,23.912 z M167.281,15.394 L167.281,20.01 L170.149,20.01 C171.622,20.01 172.892,19.335 172.892,17.626 C172.892,15.874 171.42,15.394 169.952,15.394 L167.281,15.394 L167.281,15.394 z M162.669,32.663 L162.669,11.419 L170.029,11.419 C173.731,11.419 177.791,12.254 177.791,16.87 C177.791,19.218 176.434,20.886 174.251,21.563 L174.251,21.602 C177.033,21.959 178.784,23.792 178.784,26.536 C178.784,30.954 174.565,32.663 170.787,32.663 L162.669,32.663 L162.669,32.663 z M184.984,32.663 L180.324,32.663 L187.886,11.419 L193.613,11.419 L201.171,32.663 L196.201,32.663 L194.728,28.328 L186.451,28.328 L184.984,32.663 L184.984,32.663 z M193.377,24.35 L191.507,18.699 C190.992,17.147 190.592,15.715 190.592,15.715 C190.592,15.715 190.193,17.147 189.677,18.739 L187.805,24.35 L193.377,24.35 L193.377,24.35 z M204.059,32.663 L208.357,32.663 L208.357,22.558 C208.357,20.65 208.238,18.699 208.238,18.699 C208.238,18.699 209.233,20.408 210.344,22.076 L217.544,32.663 L221.642,32.663 L221.642,11.419 L217.345,11.419 L217.345,21.049 C217.345,22.952 217.469,24.907 217.469,24.907 C217.469,24.907 216.471,23.196 215.358,21.521 L208.477,11.419 L204.059,11.419 L204.059,32.663 L204.059,32.663 z M226.75,11.419 L226.75,32.663 L231.366,32.663 L231.366,22.717 L238.17,32.663 L243.859,32.663 L236.064,21.285 L243.105,11.419 L237.771,11.419 L231.366,20.968 L231.366,11.419 L226.75,11.419 L226.75,11.419 z" id="Commerzbank" className="lsgs-f2d71--logo-wordmark"></path></g><g id="Bildmarke"><path d="M283.38,0 L282.97,0 L282.11,0 L282.11,0 L266.293,0 C266.28,0 266.267,0.008 266.259,0.02 L253.995,21.263 C253.989,21.275 253.989,21.29 253.995,21.303 L262.713,36.405 C262.68,36.3 262.622,36.184 262.622,36.184 C262.438,35.841 262.301,35.576 262.228,35.409 C261.871,34.591 261.663,33.464 261.721,32.364 C261.865,29.468 263.312,26.612 264.084,25.275 C265.902,22.131 269.411,16.052 269.411,16.052 C269.411,16.052 272.92,9.972 274.733,6.828 C275.183,6.05 275.949,4.79 276.989,3.564 L277.022,3.602 C277.022,3.602 277.06,3.56 277.062,3.558 C277.809,2.677 278.699,1.813 279.712,1.158 C280.639,0.559 281.722,0.173 282.609,0.075 C282.903,0.043 283.373,0 283.373,0" fill="url(#lsgs-f2d71--simple-header-logo-:r0:-svg-gradient)"></path><path d="M298.199,24.364 C297.791,25.049 297.473,25.558 297.301,25.795 C296.775,26.512 295.898,27.259 294.919,27.761 C292.337,29.084 289.097,29.176 287.55,29.176 C283.918,29.176 276.989,29.176 276.989,29.176 C276.989,29.176 269.971,29.176 266.338,29.176 C264.793,29.176 261.641,29.084 259.061,27.761 C258.082,27.259 257.204,26.512 256.678,25.795 C256.504,25.558 256.28,25.261 256.28,25.261 L264.777,39.98 C264.785,39.992 264.797,40 264.812,40 L289.163,40 C289.177,40 289.19,39.992 289.197,39.98 L298.249,24.308 C298.248,24.308 298.23,24.312 298.199,24.364 z" fill="url(#lsgs-f2d71--simple-header-logo-:r0:-svg-gradient-2)"></path><path d="M287.683,-0 L283.305,-0 C283.305,-0 282.835,0.043 282.542,0.075 C281.654,0.173 280.572,0.56 279.645,1.158 C278.629,1.815 277.737,2.682 276.989,3.564 C278.029,4.79 278.797,6.05 279.242,6.829 C281.057,9.973 284.57,16.052 284.57,16.052 C284.57,16.052 288.077,22.131 289.894,25.275 C290.666,26.612 292.116,29.468 292.258,32.364 C292.308,33.362 292.143,34.383 291.846,35.174 L291.588,35.841 L299.985,21.301 C299.992,21.289 299.992,21.274 299.985,21.261 L287.718,0.02 C287.711,0.008 287.698,-0 287.683,-0 z" fill="url(#lsgs-f2d71--simple-header-logo-:r0:-svg-gradient-3)"></path></g></svg>